<svg width="24" height="24" viewBox="0 0 24 24" fill="none" xmlns="http://www.w3.org/2000/svg">
<path d="M22 8.51805V3.97805C22 2.56805 21.36 1.99805 19.77 1.99805H15.73C14.14 1.99805 13.5 2.56805 13.5 3.97805V8.50805C13.5 9.92805 14.14 10.488 15.73 10.488H19.77C21.36 10.498 22 9.92805 22 8.51805Z" stroke="currentColor" stroke-width="1.5" stroke-linecap="round" stroke-linejoin="round"/>
<path d="M22 19.77V15.73C22 14.14 21.36 13.5 19.77 13.5H15.73C14.14 13.5 13.5 14.14 13.5 15.73V19.77C13.5 21.36 14.14 22 15.73 22H19.77C21.36 22 22 21.36 22 19.77Z" stroke="currentColor" stroke-width="1.5" stroke-linecap="round" stroke-linejoin="round"/>
<path d="M10.5001 8.51805V3.97805C10.5001 2.56805 9.86012 1.99805 8.27012 1.99805H4.23012C2.64012 1.99805 2.00012 2.56805 2.00012 3.97805V8.50805C2.00012 9.92805 2.64012 10.488 4.23012 10.488H8.27012C9.86012 10.498 10.5001 9.92805 10.5001 8.51805Z" stroke="currentColor" stroke-width="1.5" stroke-linecap="round" stroke-linejoin="round"/>
<path d="M10.5001 19.77V15.73C10.5001 14.14 9.86012 13.5 8.27012 13.5H4.23012C2.64012 13.5 2.00012 14.14 2.00012 15.73V19.77C2.00012 21.36 2.64012 22 4.23012 22H8.27012C9.86012 22 10.5001 21.36 10.5001 19.77Z" stroke="currentColor" stroke-width="1.5" stroke-linecap="round" stroke-linejoin="round"/>
</svg>
