<svg width="36" height="36" viewBox="0 0 36 36" fill="none" xmlns="http://www.w3.org/2000/svg">
<path d="M13.0078 21.4928C13.0078 23.4278 14.4928 24.9878 16.3378 24.9878H20.1028C21.7078 24.9878 23.0128 23.6228 23.0128 21.9428C23.0128 20.1128 22.2178 19.4678 21.0328 19.0478L14.9878 16.9478C13.8028 16.5278 13.0078 15.8828 13.0078 14.0528C13.0078 12.3728 14.3128 11.0078 15.9178 11.0078H19.6828C21.5278 11.0078 23.0128 12.5678 23.0128 14.5028" stroke="#616060" stroke-width="1.5" stroke-linecap="round" stroke-linejoin="round"/>
<path d="M18 9V27" stroke="#616060" stroke-width="1.5" stroke-linecap="round" stroke-linejoin="round"/>
<path d="M22.5 33H13.5C6 33 3 30 3 22.5V13.5C3 6 6 3 13.5 3H22.5C30 3 33 6 33 13.5V22.5C33 30 30 33 22.5 33Z" stroke="#616060" stroke-width="1.5" stroke-linecap="round" stroke-linejoin="round"/>
</svg>
