<svg width="21" height="21" viewBox="0 0 21 21" fill="none" xmlns="http://www.w3.org/2000/svg">
<path d="M10.6664 19.9992C15.8211 19.9992 19.9998 15.8204 19.9998 10.6656C19.9998 5.51082 15.8211 1.33203 10.6664 1.33203C5.51171 1.33203 1.33301 5.51082 1.33301 10.6656C1.33301 15.8204 5.51171 19.9992 10.6664 19.9992Z" stroke="#4848C8" stroke-width="1.5" stroke-linecap="round" stroke-linejoin="round"/>
<path d="M7.86299 10.5796L9.25413 10.9557L8.45318 14.4787C8.2677 15.3044 8.63865 15.5796 9.27942 15.0933L13.6468 11.7998C14.178 11.3961 14.1021 10.9282 13.4697 10.7539L12.0786 10.3778L12.8796 6.85489C13.065 6.02921 12.6941 5.754 12.0533 6.24024L7.68594 9.53381C7.15478 9.93747 7.23065 10.4053 7.86299 10.5796Z" stroke="#4848C8" stroke-width="1.5" stroke-miterlimit="10" stroke-linecap="round" stroke-linejoin="round"/>
</svg>
