<svg xmlns="http://www.w3.org/2000/svg" width="72" height="72" viewBox="0 0 72 72"><path d="M24.961 22.219h5.766c.124.371.242.731.344 1.106l.073.269.078.289.083.307.223.829.141.524q.694 2.573 1.374 5.151a1290 1290 0 0 0 1.362 5.112l.158.587.339 1.261.125.467.071.265q.058.213.129.423a10 10 0 0 0 .359-1.096l.04-.153.129-.495.093-.353.246-.931.435-1.646.047-.183q.39-1.472.802-2.936a108 108 0 0 0 .569-2.115 294 294 0 0 1 1.081-4.052 277 277 0 0 0 .698-2.634h6.891l.844 2.883.389 1.327.389 1.326 2.186 7.462a880 880 0 0 0 1.394 4.722c.465-1.539.871-3.095 1.281-4.648l.472-1.783.174-.658a726 726 0 0 1 .879-3.282 415 415 0 0 0 .833-3.126 501 501 0 0 1 .775-2.916l.144-.537.043-.161q.079-.307.179-.606h6.68c-.079.553-.079.553-.15.803l-.047.173-.053.184-.056.199-.186.657-.131.465-.509 1.797-.235.828-.039.14-.421 1.479a315 315 0 0 0-.796 2.849 86 86 0 0 1-.418 1.479l-.066.226-.055.189q-.468 1.613-.926 3.229l-.119.422a783 783 0 0 0-1.645 5.862c-.743 2.686-.743 2.686-1.027 3.698l-.098.351-.133.469-.072.259c-.058.187-.058.187-.128.258a5 5 0 0 1-.285.01l-.186.001h-.206l-.216.001-.71.001-.49.001h-1.029l-1.322.003-1.014.001-.488.001h-.681l-.206.001-.187-.001h-.163c-.131-.019-.131-.019-.271-.159a5 5 0 0 1-.114-.351l-.065-.225-.071-.247-.114-.393-.121-.423q-.127-.447-.257-.891l-.133-.458-.134-.465a531 531 0 0 0-.842-2.887l-.145-.497-.305-1.038-.541-1.846-.049-.166-.199-.675-.346-1.181-1.106-3.776-.04-.14-.411-1.401-.063-.216-.057-.196-.049-.17-.115-.355a69 69 0 0 0-.936 3.178l-.211.765-.138.501a281 281 0 0 1-.533 1.902 107 107 0 0 0-.519 1.898l-.042.159-.117.442a128 128 0 0 1-.525 1.934 465 465 0 0 0-.776 2.813l-.304 1.113-.259.947-.257.941-.097.353-.133.487-.039.145a1.8 1.8 0 0 1-.249.566 6 6 0 0 1-.572.025h-.179q-.294 0-.587-.005l-.406-.001-1.07-.006-1.091-.005-2.143-.01a181 181 0 0 1-.983-3.465l-.357-1.287a1004 1004 0 0 1-1.755-6.399 615 615 0 0 0-1.095-3.995 395 395 0 0 1-.935-3.436 410 410 0 0 0-.909-3.332l-.278-1.004c-.328-1.182-.328-1.182-.488-1.767l-.083-.301-.111-.406-.062-.227c-.043-.184-.043-.184-.043-.396" fill="#currentColor"/><path d="M16.102 22.219h7.383l.007 7.468.003 2.485.003 2.557.001 1.433.001 1.353.001.493a37 37 0 0 1-.078 2.629l-.016.243c-.143 1.892-.933 3.849-2.366 5.144l-.298.242-.175.147c-1.583 1.259-3.647 1.897-5.661 1.907l-.18.001-.572.001h-.197c-.942-.001-1.855-.026-2.778-.229l-.169-.035a14.6 14.6 0 0 1-2.108-.626l-.202-.075c-.559-.213-1.057-.472-1.6-.743v-5.2c.281.071.438.16.681.313 2.221 1.313 5.08 1.908 7.615 1.306a3.2 3.2 0 0 0 1.869-1.362c.543-.995.544-2.085.544-3.189l.003-.391.005-1.054.005-1.105.009-2.087.01-2.377.019-4.887h-1.758z" fill="#29A94F"/><path d="M16.102 22.219h7.383l.007 7.468.003 2.485.003 2.557.001 1.433.001 1.353.001.493a39 39 0 0 1-.079 2.673l-.017.262-.017.241-.016.213-.029.16-.141.071.015-.213a45 45 0 0 0 .069-2.849l.003-.533.005-1.139.006-1.646.01-2.673.011-3.56.022-6.654h-7.171l.071 4.078 1.688.071.007 5.393.003 2.504.003 2.183.001 1.155.001 1.087.001.399v.546l.001.159a2.8 2.8 0 0 1-.159.919h-.071l.015-.184c.055-.736.068-1.467.069-2.205l.003-.391.005-1.053.006-1.103.01-2.083.011-2.375.022-4.88h-1.758zm-9 19.195c.271.068.323.087.493.281l-.351-.071v4.922l.422.141q.226.108.448.219c2.943 1.41 6.778 1.758 9.886.694 1.043-.371 1.996-.86 2.813-1.617l.141.071c-.931.905-2.085 1.482-3.322 1.846l-.166.051c-1.106.307-2.215.391-3.358.38l-.191-.001c-.926-.006-1.829-.037-2.736-.236l-.169-.035a14.6 14.6 0 0 1-2.108-.626l-.202-.075c-.559-.213-1.057-.472-1.6-.743zm41.485 6.469.121.069a.96.96 0 0 0 .463.088h.183l.199-.001h.21q.344 0 .687-.003h.477l1.254-.005 1.28-.003 2.51-.007v.211h-7.313z" fill="#29A94F"/><path d="M17.649 40.922c.071.211.071.211-.01.412-.55 1.027-1.24 1.559-2.343 1.918a8.66 8.66 0 0 1-4.185-.079v-.071c.945.063.945.063 1.313.109 1.482.149 3.053.063 4.273-.864.439-.393.709-.897.953-1.425" fill="#29A94F"/><path d="M31.993 47.673c.141.211.141.211.141.351h2.673v.071l-1.168.033-.397.011-.57.016-.18.006q-.213.005-.426.003c-.071-.071-.071-.071-.075-.285zm8.014-7.031.211.071-.141.632h-.071c-.079-.544-.079-.544 0-.703" fill="currentColor"/></svg>