<?xml version="1.0" encoding="UTF-8"?>
<svg xmlns="http://www.w3.org/2000/svg" xmlns:xlink="http://www.w3.org/1999/xlink" width="72px" height="72px" viewBox="0 0 72 34" version="1.1">
<g id="surface1">
<path style=" stroke:none;fill-rule:nonzero;fill:rgb(15.686275%,66.274512%,30.980393%);fill-opacity:1;" d="M 21.253906 23.628906 C 21.253906 25.09375 20.988281 26.46875 20.453125 27.75 C 19.917969 29.019531 19.121094 30.09375 18.066406 30.976562 C 16.953125 31.917969 15.605469 32.648438 14.03125 33.171875 C 12.457031 33.679688 10.507812 33.933594 8.183594 33.933594 C 6.609375 33.933594 5.128906 33.871094 3.738281 33.753906 C 2.347656 33.648438 1.125 33.492188 0.0703125 33.28125 L 0.0703125 26.519531 L 0.894531 26.519531 C 1.628906 26.789062 2.390625 27.042969 3.1875 27.28125 C 3.980469 27.503906 5 27.617188 6.234375 27.617188 C 7.839844 27.617188 9.070312 27.40625 9.925781 26.988281 C 10.800781 26.570312 11.417969 25.988281 11.785156 25.242188 C 12.136719 24.511719 12.335938 23.710938 12.382812 22.847656 C 12.425781 21.964844 12.449219 20.847656 12.449219 19.488281 L 12.449219 6.207031 L 4.632812 6.207031 L 4.632812 0.0703125 L 21.253906 0.0703125 Z M 21.253906 23.628906 "/>
<path style=" stroke:none;fill-rule:nonzero;fill:rgb(100%,100%,100%);fill-opacity:1;" d="M 71.976562 0.0703125 L 62.78125 33.417969 L 53.035156 33.417969 L 46.914062 11.691406 L 40.953125 33.417969 L 31.210938 33.417969 L 22.015625 0.0703125 L 31.210938 0.0703125 L 36.460938 23.027344 L 42.742188 0.0703125 L 51.523438 0.0703125 L 57.507812 23.027344 L 63.011719 0.0703125 Z M 71.976562 0.0703125 "/>
</g>
</svg>
