<?xml version="1.0" encoding="UTF-8"?>
<svg xmlns="http://www.w3.org/2000/svg" xmlns:xlink="http://www.w3.org/1999/xlink" width="52px" height="30px" viewBox="0 0 62 30" version="1.1">
<g id="surface1">
<path style=" stroke:none;fill-rule:nonzero;fill:rgb(15.686275%,66.274512%,30.980393%);fill-opacity:1;" d="M 18.300781 20.851562 C 18.300781 22.140625 18.070312 23.351562 17.609375 24.488281 C 17.148438 25.605469 16.464844 26.554688 15.558594 27.332031 C 14.597656 28.160156 13.4375 28.808594 12.082031 29.269531 C 10.726562 29.714844 9.050781 29.941406 7.046875 29.941406 C 5.691406 29.941406 4.414062 29.886719 3.21875 29.78125 C 2.019531 29.691406 0.96875 29.550781 0.0585938 29.367188 L 0.0585938 23.398438 L 0.769531 23.398438 C 1.402344 23.636719 2.058594 23.859375 2.746094 24.070312 C 3.429688 24.269531 4.304688 24.367188 5.371094 24.367188 C 6.753906 24.367188 7.8125 24.183594 8.546875 23.816406 C 9.300781 23.445312 9.832031 22.933594 10.148438 22.273438 C 10.449219 21.628906 10.621094 20.921875 10.660156 20.160156 C 10.699219 19.382812 10.71875 18.394531 10.71875 17.195312 L 10.71875 5.476562 L 3.988281 5.476562 L 3.988281 0.0625 L 18.300781 0.0625 Z M 18.300781 20.851562 "/>
<path style=" stroke:none;fill-rule:nonzero;fill:rgb(16.862746%,16.470589%,15.686275%);fill-opacity:1;" d="M 61.980469 0.0625 L 54.0625 29.484375 L 45.671875 29.484375 L 40.398438 10.316406 L 35.265625 29.484375 L 26.875 29.484375 L 18.957031 0.0625 L 26.875 0.0625 L 31.394531 20.316406 L 36.804688 0.0625 L 44.367188 0.0625 L 49.519531 20.316406 L 54.257812 0.0625 Z M 61.980469 0.0625 "/>
</g>
</svg>
