<svg width="36" height="36" viewBox="0 0 36 36" fill="none" xmlns="http://www.w3.org/2000/svg">
<path d="M12.7498 28.4961H11.9998C5.99976 28.4961 2.99976 26.9961 2.99976 19.4961V11.9961C2.99976 5.99609 5.99976 2.99609 11.9998 2.99609H23.9998C29.9998 2.99609 32.9998 5.99609 32.9998 11.9961V19.4961C32.9998 25.4961 29.9998 28.4961 23.9998 28.4961H23.2498C22.7848 28.4961 22.3348 28.7211 22.0498 29.0961L19.7998 32.0961C18.8098 33.4161 17.1898 33.4161 16.1998 32.0961L13.9498 29.0961C13.7098 28.7661 13.1548 28.4961 12.7498 28.4961Z" stroke="#616060" stroke-width="1.5" stroke-miterlimit="10" stroke-linecap="round" stroke-linejoin="round"/>
<path d="M23.9949 16.5H24.0084" stroke="#616060" stroke-width="2" stroke-linecap="round" stroke-linejoin="round"/>
<path d="M17.993 16.5H18.0065" stroke="#616060" stroke-width="2" stroke-linecap="round" stroke-linejoin="round"/>
<path d="M11.9918 16.5H12.0052" stroke="#616060" stroke-width="2" stroke-linecap="round" stroke-linejoin="round"/>
</svg>
