<svg width="36" height="36" viewBox="0 0 36 36" fill="none" xmlns="http://www.w3.org/2000/svg">
<path d="M26.9991 10.74C26.9091 10.725 26.8041 10.725 26.7141 10.74C24.6441 10.665 22.9941 8.97 22.9941 6.87C22.9941 4.725 24.7191 3 26.8641 3C29.0091 3 30.7341 4.74 30.7341 6.87C30.7191 8.97 29.0691 10.665 26.9991 10.74Z" stroke="#616060" stroke-width="1.5" stroke-linecap="round" stroke-linejoin="round"/>
<path d="M25.4532 21.6602C27.5082 22.0052 29.7732 21.6452 31.3632 20.5802C33.4782 19.1702 33.4782 16.8602 31.3632 15.4502C29.7582 14.3852 27.4632 14.0252 25.4082 14.3852" stroke="#616060" stroke-width="1.5" stroke-linecap="round" stroke-linejoin="round"/>
<path d="M8.9518 10.74C9.0418 10.725 9.1468 10.725 9.2368 10.74C11.3068 10.665 12.9568 8.97 12.9568 6.87C12.9568 4.725 11.2318 3 9.0868 3C6.9418 3 5.2168 4.74 5.2168 6.87C5.2318 8.97 6.8818 10.665 8.9518 10.74Z" stroke="#616060" stroke-width="1.5" stroke-linecap="round" stroke-linejoin="round"/>
<path d="M10.4982 21.6602C8.4432 22.0052 6.1782 21.6452 4.5882 20.5802C2.4732 19.1702 2.4732 16.8602 4.5882 15.4502C6.1932 14.3852 8.4882 14.0252 10.5432 14.3852" stroke="#616060" stroke-width="1.5" stroke-linecap="round" stroke-linejoin="round"/>
<path d="M17.9991 21.9431C17.9091 21.9281 17.8041 21.9281 17.7141 21.9431C15.6441 21.8681 13.9941 20.1731 13.9941 18.0731C13.9941 15.9281 15.7191 14.2031 17.8641 14.2031C20.0091 14.2031 21.7341 15.9431 21.7341 18.0731C21.7191 20.1731 20.0691 21.8831 17.9991 21.9431Z" stroke="#616060" stroke-width="1.5" stroke-linecap="round" stroke-linejoin="round"/>
<path d="M13.6351 26.6691C11.5201 28.0791 11.5201 30.3891 13.6351 31.7991C16.0351 33.4041 19.9651 33.4041 22.3651 31.7991C24.4801 30.3891 24.4801 28.0791 22.3651 26.6691C19.9801 25.0791 16.0351 25.0791 13.6351 26.6691Z" stroke="#616060" stroke-width="1.5" stroke-linecap="round" stroke-linejoin="round"/>
</svg>
