<svg width="36" height="36" viewBox="0 0 36 36" fill="none" xmlns="http://www.w3.org/2000/svg">
<path d="M25.4998 31.5H10.4998C4.49976 31.5 2.99976 30 2.99976 24V12C2.99976 6 4.49976 4.5 10.4998 4.5H25.4998C31.4998 4.5 32.9998 6 32.9998 12V24C32.9998 30 31.4998 31.5 25.4998 31.5Z" stroke="#616060" stroke-width="1.5" stroke-linecap="round" stroke-linejoin="round"/>
<path d="M20.9998 11.9961H28.4998" stroke="#616060" stroke-width="1.5" stroke-linecap="round" stroke-linejoin="round"/>
<path d="M22.5 18H28.5" stroke="#616060" stroke-width="1.5" stroke-linecap="round" stroke-linejoin="round"/>
<path d="M25.4998 24.0039H28.4998" stroke="#616060" stroke-width="1.5" stroke-linecap="round" stroke-linejoin="round"/>
<path d="M12.7497 16.9339C14.2491 16.9339 15.4647 15.7184 15.4647 14.2189C15.4647 12.7195 14.2491 11.5039 12.7497 11.5039C11.2502 11.5039 10.0347 12.7195 10.0347 14.2189C10.0347 15.7184 11.2502 16.9339 12.7497 16.9339Z" stroke="#616060" stroke-width="1.5" stroke-linecap="round" stroke-linejoin="round"/>
<path d="M17.9998 24.4956C17.7898 22.3206 16.0648 20.6106 13.8898 20.4156C13.1398 20.3406 12.3748 20.3406 11.6098 20.4156C9.43476 20.6256 7.70976 22.3206 7.49976 24.4956" stroke="#616060" stroke-width="1.5" stroke-linecap="round" stroke-linejoin="round"/>
</svg>
