<svg width="220" height="244" viewBox="0 0 220 244" fill="none" xmlns="http://www.w3.org/2000/svg">
<g filter="url(#filter0_ddddd_93_64)">
<path d="M105.071 19.9293C103.882 19.8752 103.236 19.6772 102.806 19.5096C102.237 19.2879 101.831 19.024 101.403 18.5972C100.976 18.1704 100.712 17.7644 100.491 17.195C100.323 16.7652 100.125 16.1191 100.071 14.9297C100.012 13.644 100 13.2582 100 10.0009C100 6.74354 100.013 6.35837 100.071 5.07148C100.125 3.88207 100.324 3.23714 100.49 2.80619C100.712 2.23675 100.977 1.83077 101.403 1.4028C101.83 0.976016 102.236 0.71091 102.806 0.490385C103.235 0.322763 103.881 0.124825 105.071 0.0707344C106.357 0.0118881 106.744 0 110 0C113.257 0 113.642 0.0130769 114.929 0.0707344C116.119 0.124825 116.763 0.323952 117.194 0.490385C117.764 0.71091 118.17 0.976016 118.597 1.4028C119.025 1.82958 119.288 2.23616 119.51 2.8056C119.677 3.23536 119.875 3.88147 119.929 5.07088C119.988 6.35777 120 6.74295 120 10.0003C120 13.2565 119.988 13.6428 119.929 14.9297C119.875 16.1191 119.676 16.7652 119.51 17.195C119.288 17.7644 119.024 18.1704 118.597 18.5972C118.17 19.024 117.764 19.2879 117.194 19.5096C116.765 19.6772 116.119 19.8752 114.929 19.9293C113.643 19.9881 113.257 20 110 20C106.744 20 106.357 19.9887 105.071 19.9293Z" fill="url(#paint0_linear_93_64)"/>
<path d="M105.071 19.9293C103.882 19.8752 103.236 19.6772 102.806 19.5096C102.237 19.2879 101.831 19.024 101.403 18.5972C100.976 18.1704 100.712 17.7644 100.491 17.195C100.323 16.7652 100.125 16.1191 100.071 14.9297C100.012 13.644 100 13.2582 100 10.0009C100 6.74354 100.013 6.35837 100.071 5.07148C100.125 3.88207 100.324 3.23714 100.49 2.80619C100.712 2.23675 100.977 1.83077 101.403 1.4028C101.83 0.976016 102.236 0.71091 102.806 0.490385C103.235 0.322763 103.881 0.124825 105.071 0.0707344C106.357 0.0118881 106.744 0 110 0C113.257 0 113.642 0.0130769 114.929 0.0707344C116.119 0.124825 116.763 0.323952 117.194 0.490385C117.764 0.71091 118.17 0.976016 118.597 1.4028C119.025 1.82958 119.288 2.23616 119.51 2.8056C119.677 3.23536 119.875 3.88147 119.929 5.07088C119.988 6.35777 120 6.74295 120 10.0003C120 13.2565 119.988 13.6428 119.929 14.9297C119.875 16.1191 119.676 16.7652 119.51 17.195C119.288 17.7644 119.024 18.1704 118.597 18.5972C118.17 19.024 117.764 19.2879 117.194 19.5096C116.765 19.6772 116.119 19.8752 114.929 19.9293C113.643 19.9881 113.257 20 110 20C106.744 20 106.357 19.9887 105.071 19.9293Z" fill="url(#paint1_radial_93_64)"/>
<path d="M105.071 19.9293C103.882 19.8752 103.236 19.6772 102.806 19.5096C102.237 19.2879 101.831 19.024 101.403 18.5972C100.976 18.1704 100.712 17.7644 100.491 17.195C100.323 16.7652 100.125 16.1191 100.071 14.9297C100.012 13.644 100 13.2582 100 10.0009C100 6.74354 100.013 6.35837 100.071 5.07148C100.125 3.88207 100.324 3.23714 100.49 2.80619C100.712 2.23675 100.977 1.83077 101.403 1.4028C101.83 0.976016 102.236 0.71091 102.806 0.490385C103.235 0.322763 103.881 0.124825 105.071 0.0707344C106.357 0.0118881 106.744 0 110 0C113.257 0 113.642 0.0130769 114.929 0.0707344C116.119 0.124825 116.763 0.323952 117.194 0.490385C117.764 0.71091 118.17 0.976016 118.597 1.4028C119.025 1.82958 119.288 2.23616 119.51 2.8056C119.677 3.23536 119.875 3.88147 119.929 5.07088C119.988 6.35777 120 6.74295 120 10.0003C120 13.2565 119.988 13.6428 119.929 14.9297C119.875 16.1191 119.676 16.7652 119.51 17.195C119.288 17.7644 119.024 18.1704 118.597 18.5972C118.17 19.024 117.764 19.2879 117.194 19.5096C116.765 19.6772 116.119 19.8752 114.929 19.9293C113.643 19.9881 113.257 20 110 20C106.744 20 106.357 19.9887 105.071 19.9293Z" fill="url(#paint2_radial_93_64)"/>
<path d="M105.071 19.9293C103.882 19.8752 103.236 19.6772 102.806 19.5096C102.237 19.2879 101.831 19.024 101.403 18.5972C100.976 18.1704 100.712 17.7644 100.491 17.195C100.323 16.7652 100.125 16.1191 100.071 14.9297C100.012 13.644 100 13.2582 100 10.0009C100 6.74354 100.013 6.35837 100.071 5.07148C100.125 3.88207 100.324 3.23714 100.49 2.80619C100.712 2.23675 100.977 1.83077 101.403 1.4028C101.83 0.976016 102.236 0.71091 102.806 0.490385C103.235 0.322763 103.881 0.124825 105.071 0.0707344C106.357 0.0118881 106.744 0 110 0C113.257 0 113.642 0.0130769 114.929 0.0707344C116.119 0.124825 116.763 0.323952 117.194 0.490385C117.764 0.71091 118.17 0.976016 118.597 1.4028C119.025 1.82958 119.288 2.23616 119.51 2.8056C119.677 3.23536 119.875 3.88147 119.929 5.07088C119.988 6.35777 120 6.74295 120 10.0003C120 13.2565 119.988 13.6428 119.929 14.9297C119.875 16.1191 119.676 16.7652 119.51 17.195C119.288 17.7644 119.024 18.1704 118.597 18.5972C118.17 19.024 117.764 19.2879 117.194 19.5096C116.765 19.6772 116.119 19.8752 114.929 19.9293C113.643 19.9881 113.257 20 110 20C106.744 20 106.357 19.9887 105.071 19.9293Z" fill="url(#paint3_radial_93_64)" fill-opacity="0.7"/>
<path d="M105.071 19.9293C103.882 19.8752 103.236 19.6772 102.806 19.5096C102.237 19.2879 101.831 19.024 101.403 18.5972C100.976 18.1704 100.712 17.7644 100.491 17.195C100.323 16.7652 100.125 16.1191 100.071 14.9297C100.012 13.644 100 13.2582 100 10.0009C100 6.74354 100.013 6.35837 100.071 5.07148C100.125 3.88207 100.324 3.23714 100.49 2.80619C100.712 2.23675 100.977 1.83077 101.403 1.4028C101.83 0.976016 102.236 0.71091 102.806 0.490385C103.235 0.322763 103.881 0.124825 105.071 0.0707344C106.357 0.0118881 106.744 0 110 0C113.257 0 113.642 0.0130769 114.929 0.0707344C116.119 0.124825 116.763 0.323952 117.194 0.490385C117.764 0.71091 118.17 0.976016 118.597 1.4028C119.025 1.82958 119.288 2.23616 119.51 2.8056C119.677 3.23536 119.875 3.88147 119.929 5.07088C119.988 6.35777 120 6.74295 120 10.0003C120 13.2565 119.988 13.6428 119.929 14.9297C119.875 16.1191 119.676 16.7652 119.51 17.195C119.288 17.7644 119.024 18.1704 118.597 18.5972C118.17 19.024 117.764 19.2879 117.194 19.5096C116.765 19.6772 116.119 19.8752 114.929 19.9293C113.643 19.9881 113.257 20 110 20C106.744 20 106.357 19.9887 105.071 19.9293Z" fill="url(#paint4_radial_93_64)"/>
<path d="M105.071 19.9293C103.882 19.8752 103.236 19.6772 102.806 19.5096C102.237 19.2879 101.831 19.024 101.403 18.5972C100.976 18.1704 100.712 17.7644 100.491 17.195C100.323 16.7652 100.125 16.1191 100.071 14.9297C100.012 13.644 100 13.2582 100 10.0009C100 6.74354 100.013 6.35837 100.071 5.07148C100.125 3.88207 100.324 3.23714 100.49 2.80619C100.712 2.23675 100.977 1.83077 101.403 1.4028C101.83 0.976016 102.236 0.71091 102.806 0.490385C103.235 0.322763 103.881 0.124825 105.071 0.0707344C106.357 0.0118881 106.744 0 110 0C113.257 0 113.642 0.0130769 114.929 0.0707344C116.119 0.124825 116.763 0.323952 117.194 0.490385C117.764 0.71091 118.17 0.976016 118.597 1.4028C119.025 1.82958 119.288 2.23616 119.51 2.8056C119.677 3.23536 119.875 3.88147 119.929 5.07088C119.988 6.35777 120 6.74295 120 10.0003C120 13.2565 119.988 13.6428 119.929 14.9297C119.875 16.1191 119.676 16.7652 119.51 17.195C119.288 17.7644 119.024 18.1704 118.597 18.5972C118.17 19.024 117.764 19.2879 117.194 19.5096C116.765 19.6772 116.119 19.8752 114.929 19.9293C113.643 19.9881 113.257 20 110 20C106.744 20 106.357 19.9887 105.071 19.9293Z" fill="url(#paint5_radial_93_64)"/>
<path d="M107.547 9.97401C107.547 8.63337 108.634 7.54628 109.974 7.54628C111.315 7.54628 112.402 8.63337 112.402 9.97401C112.402 11.3147 111.315 12.4017 109.974 12.4017C108.634 12.4017 107.547 11.3147 107.547 9.97401ZM106.235 9.97401C106.235 12.0394 107.909 13.7135 109.974 13.7135C112.04 13.7135 113.714 12.0394 113.714 9.97401C113.714 7.90867 112.04 6.23448 109.974 6.23448C107.909 6.23448 106.235 7.90855 106.235 9.97401H106.235ZM112.988 6.08621C112.988 6.25905 113.039 6.42804 113.135 6.57179C113.231 6.71554 113.368 6.82761 113.527 6.89382C113.687 6.96002 113.863 6.9774 114.032 6.94375C114.202 6.91009 114.358 6.82693 114.48 6.70475C114.602 6.58259 114.685 6.4269 114.719 6.25739C114.753 6.08788 114.736 5.91216 114.67 5.75245C114.604 5.59274 114.492 5.4562 114.348 5.36012C114.204 5.26404 114.035 5.21271 113.862 5.21265H113.862C113.63 5.21275 113.408 5.30481 113.244 5.4686C113.08 5.6324 112.988 5.85453 112.988 6.08621ZM107.032 15.9019C106.322 15.8696 105.936 15.7513 105.68 15.6514C105.34 15.5191 105.097 15.3614 104.842 15.1067C104.587 14.852 104.429 14.6096 104.297 14.2696C104.197 14.0132 104.079 13.6272 104.047 12.9172C104.011 12.1495 104.004 11.9189 104.004 9.97413C104.004 8.02933 104.012 7.79937 104.047 7.03108C104.079 6.32106 104.198 5.93578 104.297 5.67867C104.429 5.33866 104.587 5.09607 104.842 4.841C105.097 4.58593 105.339 4.42805 105.68 4.29626C105.936 4.19628 106.322 4.07801 107.032 4.04574C107.8 4.01043 108.03 4.00338 109.974 4.00338C111.918 4.00338 112.149 4.0109 112.917 4.04585C113.628 4.07819 114.013 4.19733 114.27 4.29638C114.61 4.42816 114.853 4.5864 115.108 4.84112C115.363 5.09583 115.52 5.33878 115.652 5.67879C115.752 5.93514 115.871 6.32117 115.903 7.0312C115.938 7.79949 115.945 8.02944 115.945 9.97425C115.945 11.9191 115.938 12.149 115.903 12.9173C115.871 13.6273 115.752 14.0132 115.652 14.2697C115.52 14.6097 115.362 14.8523 115.108 15.1068C114.853 15.3613 114.61 15.5192 114.27 15.6515C114.014 15.7515 113.628 15.8698 112.917 15.9021C112.15 15.9374 111.919 15.9444 109.974 15.9444C108.029 15.9444 107.799 15.9374 107.032 15.9021V15.9019ZM106.972 2.73551C106.196 2.77082 105.667 2.89375 105.204 3.07377C104.725 3.25968 104.319 3.5091 103.914 3.91378C103.508 4.31846 103.26 4.72442 103.074 5.20385C102.894 5.66679 102.771 6.19626 102.736 6.97154C102.7 7.74804 102.691 7.99629 102.691 9.97401C102.691 11.9517 102.7 12.2 102.736 12.9765C102.771 13.7518 102.894 14.2812 103.074 14.7442C103.26 15.223 103.509 15.6297 103.914 16.0343C104.319 16.4388 104.725 16.6878 105.204 16.8743C105.667 17.0543 106.196 17.1772 106.972 17.2125C107.749 17.2478 107.997 17.2566 109.974 17.2566C111.952 17.2566 112.2 17.2484 112.977 17.2125C113.752 17.1772 114.282 17.0543 114.745 16.8743C115.224 16.6878 115.629 16.4389 116.035 16.0343C116.44 15.6296 116.688 15.223 116.875 14.7442C117.055 14.2812 117.178 13.7518 117.213 12.9765C117.248 12.1994 117.257 11.9517 117.257 9.97401C117.257 7.99629 117.248 7.74804 117.213 6.97154C117.178 6.19621 117.055 5.6665 116.875 5.20385C116.688 4.725 116.439 4.3191 116.035 3.91378C115.63 3.50846 115.224 3.25968 114.745 3.07377C114.282 2.89375 113.752 2.77023 112.977 2.73551C112.201 2.70003 111.953 2.69141 109.975 2.69141C107.998 2.69141 107.749 2.69962 106.972 2.73551" fill="white"/>
</g>
<defs>
<filter id="filter0_ddddd_93_64" x="0.621117" y="0" width="218.758" height="243.602" filterUnits="userSpaceOnUse" color-interpolation-filters="sRGB">
<feFlood flood-opacity="0" result="BackgroundImageFix"/>
<feColorMatrix in="SourceAlpha" type="matrix" values="0 0 0 0 0 0 0 0 0 0 0 0 0 0 0 0 0 0 127 0" result="hardAlpha"/>
<feOffset dy="8.261"/>
<feGaussianBlur stdDeviation="3.3044"/>
<feColorMatrix type="matrix" values="0 0 0 0 0 0 0 0 0 0 0 0 0 0 0 0 0 0 0.0282725 0"/>
<feBlend mode="normal" in2="BackgroundImageFix" result="effect1_dropShadow_93_64"/>
<feColorMatrix in="SourceAlpha" type="matrix" values="0 0 0 0 0 0 0 0 0 0 0 0 0 0 0 0 0 0 127 0" result="hardAlpha"/>
<feOffset dy="15.5547"/>
<feGaussianBlur stdDeviation="6.22189"/>
<feColorMatrix type="matrix" values="0 0 0 0 0 0 0 0 0 0 0 0 0 0 0 0 0 0 0.035 0"/>
<feBlend mode="normal" in2="effect1_dropShadow_93_64" result="effect2_dropShadow_93_64"/>
<feColorMatrix in="SourceAlpha" type="matrix" values="0 0 0 0 0 0 0 0 0 0 0 0 0 0 0 0 0 0 127 0" result="hardAlpha"/>
<feOffset dy="27.747"/>
<feGaussianBlur stdDeviation="11.0988"/>
<feColorMatrix type="matrix" values="0 0 0 0 0 0 0 0 0 0 0 0 0 0 0 0 0 0 0.0417275 0"/>
<feBlend mode="normal" in2="effect2_dropShadow_93_64" result="effect3_dropShadow_93_64"/>
<feColorMatrix in="SourceAlpha" type="matrix" values="0 0 0 0 0 0 0 0 0 0 0 0 0 0 0 0 0 0 127 0" result="hardAlpha"/>
<feOffset dy="51.8977"/>
<feGaussianBlur stdDeviation="20.7591"/>
<feColorMatrix type="matrix" values="0 0 0 0 0 0 0 0 0 0 0 0 0 0 0 0 0 0 0.0503198 0"/>
<feBlend mode="normal" in2="effect3_dropShadow_93_64" result="effect4_dropShadow_93_64"/>
<feColorMatrix in="SourceAlpha" type="matrix" values="0 0 0 0 0 0 0 0 0 0 0 0 0 0 0 0 0 0 127 0" result="hardAlpha"/>
<feOffset dy="124.224"/>
<feGaussianBlur stdDeviation="49.6894"/>
<feColorMatrix type="matrix" values="0 0 0 0 0 0 0 0 0 0 0 0 0 0 0 0 0 0 0.07 0"/>
<feBlend mode="normal" in2="effect4_dropShadow_93_64" result="effect5_dropShadow_93_64"/>
<feBlend mode="normal" in="SourceGraphic" in2="effect5_dropShadow_93_64" result="shape"/>
</filter>
<linearGradient id="paint0_linear_93_64" x1="110.021" y1="5.38302" x2="110" y2="20" gradientUnits="userSpaceOnUse">
<stop stop-color="#FE02B7"/>
<stop offset="0.256159" stop-color="#FC2278"/>
<stop offset="0.465895" stop-color="#FF2160"/>
<stop offset="1" stop-color="#FF5234"/>
</linearGradient>
<radialGradient id="paint1_radial_93_64" cx="0" cy="0" r="1" gradientUnits="userSpaceOnUse" gradientTransform="translate(103.064 0.621118) rotate(64.7828) scale(7.8724 19.7293)">
<stop stop-color="#7837F9"/>
<stop offset="0.277606" stop-color="#7837F9" stop-opacity="0.9"/>
<stop offset="1" stop-color="#7837F9" stop-opacity="0"/>
</radialGradient>
<radialGradient id="paint2_radial_93_64" cx="0" cy="0" r="1" gradientUnits="userSpaceOnUse" gradientTransform="translate(104.845 19.5859) rotate(79.1145) scale(8.77065 13.9436)">
<stop stop-color="#FFD702"/>
<stop offset="1" stop-color="#FFD702" stop-opacity="0"/>
</radialGradient>
<radialGradient id="paint3_radial_93_64" cx="0" cy="0" r="1" gradientUnits="userSpaceOnUse" gradientTransform="translate(120.414 17.9917) rotate(-159.55) scale(3.91107 5.65552)">
<stop stop-color="#D300C5"/>
<stop offset="1" stop-color="#D300C5" stop-opacity="0"/>
</radialGradient>
<radialGradient id="paint4_radial_93_64" cx="0" cy="0" r="1" gradientUnits="userSpaceOnUse" gradientTransform="translate(118.841 1.44927) rotate(165.426) scale(12.8354 7.16038)">
<stop stop-color="#D300C5"/>
<stop offset="1" stop-color="#D300C5" stop-opacity="0"/>
</radialGradient>
<radialGradient id="paint5_radial_93_64" cx="0" cy="0" r="1" gradientUnits="userSpaceOnUse" gradientTransform="translate(100 8.24017) rotate(-17.1428) scale(8.70993 4.53524)">
<stop stop-color="#D300C5"/>
<stop offset="1" stop-color="#D300C5" stop-opacity="0"/>
</radialGradient>
</defs>
</svg>
