<svg width="24" height="24" viewBox="0 0 24 24" fill="none" xmlns="http://www.w3.org/2000/svg">
<path d="M12.0189 1.99805C8.33892 1.99805 5.35892 4.97805 5.35892 8.65805V10.758C5.35892 11.438 5.07892 12.458 4.72892 13.038L3.45892 15.158C2.67892 16.468 3.21892 17.928 4.65892 18.408C9.43892 19.998 14.6089 19.998 19.3889 18.408C20.7389 17.958 21.3189 16.378 20.5889 15.158L19.3189 13.038C18.9689 12.458 18.6889 11.428 18.6889 10.758V8.65805C18.6789 4.99805 15.6789 1.99805 12.0189 1.99805Z" stroke="white" stroke-width="1.5" stroke-miterlimit="10" stroke-linecap="round"/>
<path d="M15.3299 18.8203C15.3299 20.6503 13.8299 22.1503 11.9999 22.1503C11.0899 22.1503 10.2499 21.7703 9.64992 21.1703C9.04992 20.5703 8.66992 19.7303 8.66992 18.8203" stroke="white" stroke-width="1.5" stroke-miterlimit="10"/>
</svg>
