<svg width="24" height="24" viewBox="0 0 24 24" fill="none" xmlns="http://www.w3.org/2000/svg">
<path d="M2 19V8C2 4 3.17647 3 7.88235 3H16.1176C20.8235 3 22 4 22 8V18C22 18.14 22 18.28 21.9882 18.42" stroke="#2B2A29" stroke-width="1.5" stroke-linecap="round" stroke-linejoin="round"/>
<path d="M5.35294 14H22V18C22 20.2057 20.1529 22 17.8824 22H6.11765C3.84706 22 2 20.2057 2 18V17.2571C2 15.4629 3.50588 14 5.35294 14Z" stroke="#2B2A29" stroke-width="1.5" stroke-linecap="round" stroke-linejoin="round"/>
<path d="M6 8H18" stroke="#2B2A29" stroke-width="1.5" stroke-linecap="round" stroke-linejoin="round"/>
<path d="M7 20H17" stroke="#2B2A29" stroke-width="1.5" stroke-linecap="round" stroke-linejoin="round"/>
<path d="M5.99988 10.75H18.0103" stroke="#2B2A29" stroke-width="1.5" stroke-linecap="round" stroke-linejoin="round"/>
<path d="M10 17H15" stroke="#2B2A29" stroke-width="1.5" stroke-linecap="round" stroke-linejoin="round"/>
</svg>
