<svg width="20" height="20" viewBox="0 0 20 20" fill="none" xmlns="http://www.w3.org/2000/svg">
<path d="M10 20C15.5228 20 20 15.5228 20 10C20 4.47715 15.5228 0 10 0C4.47715 0 0 4.47715 0 10C0 15.5228 4.47715 20 10 20Z" fill="url(#paint0_linear_93_83)"/>
<path d="M4.49474 9.78021C7.40278 8.48659 9.34193 7.63376 10.3122 7.22171C13.0825 6.04524 13.6581 5.84087 14.0333 5.83405C14.1158 5.83264 14.3003 5.85352 14.4199 5.95254C14.5208 6.03615 14.5485 6.14909 14.5618 6.22836C14.5751 6.30763 14.5917 6.48822 14.5785 6.62932C14.4284 8.23982 13.7788 12.1481 13.4483 13.9519C13.3085 14.7151 13.0332 14.9711 12.7666 14.9961C12.1873 15.0505 11.7474 14.6052 11.1864 14.2297C10.3084 13.6421 9.8124 13.2763 8.96018 12.7029C7.97529 12.0402 8.61375 11.676 9.17503 11.0808C9.32193 10.925 11.8743 8.55463 11.9237 8.33959C11.9299 8.3127 11.9356 8.21246 11.8773 8.15952C11.819 8.10659 11.7329 8.12469 11.6708 8.13909C11.5827 8.15949 10.1801 9.10602 7.46305 10.9787C7.06494 11.2578 6.70434 11.3938 6.38125 11.3867C6.02508 11.3788 5.33994 11.181 4.83061 11.012C4.2059 10.8047 3.70939 10.695 3.75262 10.3429C3.77514 10.1595 4.02251 9.97195 4.49474 9.78021Z" fill="white"/>
<defs>
<linearGradient id="paint0_linear_93_83" x1="10" y1="0" x2="10" y2="19.8516" gradientUnits="userSpaceOnUse">
<stop stop-color="#2AABEE"/>
<stop offset="1" stop-color="#229ED9"/>
</linearGradient>
</defs>
</svg>
