<svg width="20" height="20" viewBox="0 0 20 20" fill="none" xmlns="http://www.w3.org/2000/svg">
<path d="M10 0C15.5228 0 20 4.47715 20 10C20 15.5228 15.5228 20 10 20C4.47715 20 0 15.5228 0 10C0 4.47715 4.47715 0 10 0Z" fill="#7360F2"/>
<path d="M14.1938 5.30389C13.91 5.0364 12.7629 4.18594 10.2077 4.17439C10.2077 4.17439 7.19458 3.98882 5.72571 5.36481C4.90806 6.20003 4.62042 7.42214 4.59008 8.9373C4.55974 10.4525 4.52048 13.292 7.20058 14.0619H7.20315L7.20143 15.2367C7.20143 15.2367 7.18429 15.7124 7.49096 15.8094C7.8619 15.927 8.0796 15.5655 8.43375 15.1758C8.62813 14.9619 8.89657 14.6477 9.09884 14.4075C10.9318 14.565 12.3415 14.2049 12.5016 14.1517C12.8717 14.0292 14.9659 13.755 15.3065 10.9159C15.6581 7.98934 15.1365 6.13824 14.1938 5.30389ZM14.5045 10.706C14.217 13.0766 12.5184 13.2256 12.2052 13.3282C12.0721 13.372 10.8339 13.6866 9.27694 13.5828C9.27694 13.5828 8.1168 15.0121 7.75442 15.3838C7.69786 15.4419 7.63135 15.4654 7.58695 15.4538C7.52455 15.4382 7.50741 15.3628 7.5081 15.2525C7.50913 15.0949 7.51804 13.3002 7.51804 13.3002C7.51667 13.3002 7.51804 13.3002 7.51804 13.3002C5.25089 12.6574 5.38305 10.2406 5.40876 8.97512C5.43448 7.70959 5.66726 6.67288 6.35875 5.9756C7.60118 4.82632 10.1606 4.99806 10.1606 4.99806C12.322 5.00769 13.3577 5.6724 13.5978 5.89507C14.3953 6.59235 14.8015 8.26087 14.5045 10.7053V10.706Z" fill="white"/>
<path fill-rule="evenodd" clip-rule="evenodd" d="M10.2517 7.95239C10.2558 7.871 10.3238 7.80846 10.4035 7.8127C10.7017 7.82859 10.9498 7.92077 11.1265 8.10734C11.3025 8.2932 11.3887 8.55284 11.4039 8.86467C11.4079 8.94608 11.3464 9.01534 11.2667 9.01938C11.187 9.02342 11.1192 8.9607 11.1152 8.87929C11.1023 8.61237 11.0306 8.43065 10.9187 8.31254C10.8075 8.19514 10.6379 8.12075 10.3884 8.10746C10.3087 8.10321 10.2475 8.03379 10.2517 7.95239Z" fill="white"/>
<path fill-rule="evenodd" clip-rule="evenodd" d="M10.0325 7.1583C10.0383 7.07701 10.1076 7.01594 10.1872 7.02188C10.794 7.06724 11.2824 7.27899 11.6382 7.67562L11.6383 7.67568C11.9902 8.0684 12.1574 8.55695 12.1453 9.12998C12.1436 9.21147 12.0775 9.27609 11.9977 9.27433C11.9179 9.27257 11.8546 9.20508 11.8564 9.12359C11.8671 8.61825 11.7215 8.20581 11.4251 7.87494C11.1295 7.54544 10.7163 7.35737 10.1661 7.31625C10.0865 7.3103 10.0267 7.23958 10.0325 7.1583Z" fill="white"/>
<path fill-rule="evenodd" clip-rule="evenodd" d="M9.77747 6.40046C9.77803 6.31895 9.84317 6.25334 9.92298 6.25391C10.7616 6.25988 11.4704 6.54499 12.0396 7.1116C12.6134 7.68295 12.8972 8.46078 12.9044 9.42683C12.905 9.50834 12.8408 9.57491 12.761 9.57553C12.6812 9.57615 12.616 9.51058 12.6154 9.42908C12.6087 8.52384 12.345 7.82788 11.8378 7.32295C11.3259 6.81327 10.6902 6.55453 9.92096 6.54906C9.84116 6.54849 9.77691 6.48196 9.77747 6.40046Z" fill="white"/>
<path d="M10.4246 10.8474C10.4246 10.8474 10.6277 10.8649 10.7371 10.7273L10.9503 10.4533C11.0531 10.3175 11.3014 10.2308 11.5444 10.3691C11.7266 10.4752 11.9034 10.5905 12.0743 10.7147C12.2356 10.8358 12.5659 11.1173 12.5669 11.1173C12.7243 11.253 12.7606 11.4522 12.6535 11.6623C12.6535 11.6635 12.6526 11.6656 12.6526 11.6667C12.5346 11.8756 12.3848 12.064 12.2088 12.2248C12.2068 12.2258 12.2068 12.2269 12.2049 12.2279C12.052 12.3584 11.9018 12.4326 11.7542 12.4504C11.7325 12.4543 11.7104 12.4557 11.6884 12.4546C11.6234 12.4553 11.5586 12.4451 11.4968 12.4245L11.492 12.4173C11.2647 12.3519 10.8852 12.188 10.2531 11.8319C9.88741 11.6283 9.53922 11.3934 9.21231 11.1298C9.04845 10.9977 8.89215 10.8561 8.74417 10.7058L8.7284 10.6896L8.71263 10.6735L8.69686 10.6574C8.69155 10.6522 8.6864 10.6468 8.68109 10.6413C8.53386 10.4902 8.39524 10.3306 8.26592 10.1632C8.0078 9.8294 7.7778 9.47387 7.57837 9.10043C7.22971 8.4548 7.06926 8.06757 7.00515 7.83508L6.99812 7.83018C6.97803 7.767 6.96813 7.70089 6.96881 7.63446C6.96761 7.61197 6.96893 7.58942 6.97275 7.56724C6.99115 7.4168 7.06389 7.26327 7.19097 7.10665C7.192 7.10472 7.19302 7.10472 7.19405 7.10262C7.35146 6.92289 7.53594 6.76995 7.74053 6.64956C7.74156 6.64956 7.74361 6.64851 7.74481 6.64851C7.95051 6.5391 8.14558 6.57621 8.27826 6.73604C8.27929 6.73709 8.55441 7.07444 8.67252 7.23917C8.79409 7.41384 8.90703 7.59461 9.01089 7.78081C9.14631 8.02888 9.06146 8.28289 8.92844 8.38758L8.66018 8.60536C8.52476 8.71705 8.54258 8.92449 8.54258 8.92449C8.54258 8.92449 8.93993 10.4603 10.4246 10.8474Z" fill="white"/>
</svg>
