<svg width="20" height="20" viewBox="0 0 20 20" fill="none" xmlns="http://www.w3.org/2000/svg">
<path d="M10 20C15.5228 20 20 15.5228 20 10C20 4.47715 15.5228 0 10 0C4.47715 0 0 4.47715 0 10C0 15.5228 4.47715 20 10 20Z" fill="#25D366"/>
<path d="M10.3293 3.66602C11.92 3.6667 13.4128 4.28625 14.5354 5.41016C15.658 6.53397 16.2762 8.02755 16.2756 9.61621C16.2743 12.894 13.6079 15.5612 10.3293 15.5625H10.3274C9.3322 15.5622 8.35412 15.3126 7.4856 14.8389L4.33325 15.666L5.177 12.585C4.65669 11.6833 4.38267 10.6602 4.38306 9.6123C4.38436 6.33379 7.05186 3.66609 10.3293 3.66602ZM10.3313 4.66992C7.60514 4.66994 5.38804 6.88733 5.38696 9.6123C5.38666 10.546 5.64817 11.4554 6.14282 12.2422L6.26001 12.4287L5.76099 14.2529L7.6311 13.7617L7.81177 13.8691C8.57059 14.3194 9.44053 14.5583 10.3274 14.5586H10.3293C13.0533 14.5586 15.2704 12.3412 15.2717 9.61621C15.2722 8.2956 14.7586 7.05335 13.8254 6.11914C12.8923 5.185 11.6514 4.67038 10.3313 4.66992ZM8.50903 6.87012C8.60021 6.87465 8.72246 6.83639 8.84302 7.12598C8.96675 7.42329 9.26328 8.15257 9.30103 8.22852C9.33818 8.30289 9.36324 8.39005 9.31372 8.48926C9.26423 8.58827 9.23954 8.65061 9.16528 8.7373C9.09113 8.82389 9.00939 8.93049 8.94263 8.99707C8.86825 9.07116 8.79053 9.15203 8.8772 9.30078C8.9641 9.44989 9.26198 9.93636 9.70337 10.3301C10.2709 10.8363 10.7501 10.993 10.8987 11.0674C11.0469 11.1415 11.1334 11.129 11.22 11.0303C11.3066 10.9311 11.5916 10.596 11.6907 10.4473C11.7896 10.2987 11.8887 10.3236 12.0247 10.373C12.1609 10.4227 12.8916 10.782 13.0403 10.8564C13.1889 10.9308 13.2883 10.9683 13.3254 11.0303C13.3623 11.093 13.362 11.39 13.2385 11.7363C13.1147 12.0834 12.5211 12.4007 12.2356 12.4434C11.9797 12.4816 11.6559 12.4968 11.3 12.3838C11.0842 12.3153 10.8069 12.2244 10.4524 12.0713C8.96292 11.428 7.98958 9.92889 7.91431 9.82812C7.84002 9.72899 7.30803 9.02222 7.30786 8.29102C7.30786 7.55974 7.69218 7.19953 7.82837 7.05078C7.96436 6.90252 8.12491 6.8653 8.22388 6.86523C8.32292 6.86523 8.42247 6.86577 8.50903 6.87012Z" fill="#FDFDFD"/>
</svg>
